<svg width="1705" height="867" viewBox="0 0 1705 867" fill="none" xmlns="http://www.w3.org/2000/svg">
<g filter="url(#filter0_d_22_53)">
<path d="M601.222 264.32L527.67 338.322C526.921 339.076 525.903 339.501 524.84 339.503L216.989 339.999C216.664 340 216.334 340.041 216.019 340.121C189.103 346.921 178.76 355.686 168.656 379.138C168.553 379.375 168.472 379.631 168.418 379.884C165.93 391.662 166.007 397.979 168.5 408.5C172.769 420.715 176.409 426.57 184.647 435.134C184.879 435.376 185.145 435.589 185.43 435.764L355.427 540.091C358.867 542.202 357.371 547.5 353.335 547.5H213.124C212.389 547.5 211.668 547.297 211.04 546.914L135.262 500.66C135.088 500.553 134.919 500.431 134.763 500.299C113.299 482.143 104.095 469.825 92.5 444.5C87.689 432.222 85.9043 424.248 84 408.5V380.004C84 379.669 84.0435 379.33 84.127 379.006C91.7191 349.517 98.9231 334.84 116.317 312.237C116.437 312.081 116.574 311.929 116.716 311.792C137.017 292.27 149.85 283.352 175 271C190.006 265.661 199.23 262.706 216.958 257.654C217.314 257.553 217.688 257.5 218.058 257.5H598.385C601.943 257.5 603.73 261.796 601.222 264.32Z" fill="#0058F9"></path>
<path d="M479.138 406.499L279.707 406.033C275.668 406.024 274.162 411.325 277.602 413.441L399.536 488.408C400.166 488.795 400.892 489 401.631 489H470.5C491.476 491.831 500.2 498.069 510.264 517.053C510.419 517.346 510.541 517.67 510.617 517.992C516.415 542.513 512.359 554.854 492 574L298.983 730.299C298.045 731.059 297.5 732.201 297.5 733.408V822.208C297.5 825.556 301.369 827.423 303.99 825.338L556.5 624.5C581.331 600.268 590.963 583.203 602.3 548.612C602.431 548.211 602.5 547.785 602.5 547.364V517.943C602.5 517.649 602.466 517.349 602.401 517.061C594.997 484.236 587.653 469.517 569.5 449.5C539.141 423.425 519.471 413.923 479.861 406.567C479.624 406.523 479.379 406.5 479.138 406.499Z" fill="#0058F9"></path>
<path d="M367.269 615.5H222.004C221.034 615.5 220.098 615.852 219.369 616.491L140.004 685.991C137.226 688.424 138.947 693 142.639 693H282.075C282.997 693 283.89 692.682 284.604 692.099L369.797 622.599C372.712 620.221 371.031 615.5 367.269 615.5Z" fill="#0058F9"></path>
<path d="M339.641 151.915L229.932 100.158C226.448 98.5137 222.882 102.263 224.698 105.661L279.87 208.886C280.566 210.187 281.922 211 283.398 211H536.602C538.078 211 539.434 210.187 540.13 208.886L595.346 105.579C597.158 102.189 593.612 98.4439 590.128 100.068L478.861 151.933C476.965 152.817 474.708 152.091 473.684 150.267L412.974 42.1854C411.449 39.469 407.54 39.4627 406.006 42.1741L344.829 150.268C343.798 152.09 341.535 152.809 339.641 151.915Z" fill="#0058F9"></path>
</g>
<g filter="url(#filter1_d_22_53)">
<path d="M658.378 512V255.8H769.276C792.212 255.8 811.976 259.582 828.568 267.146C845.16 274.466 857.97 285.08 866.998 298.988C876.026 312.896 880.54 329.488 880.54 348.764C880.54 367.796 876.026 384.266 866.998 398.174C857.97 412.082 845.16 422.818 828.568 430.382C811.976 437.702 792.212 441.362 769.276 441.362H691.318L717.67 414.644V512H658.378ZM717.67 421.232L691.318 393.05H765.982C784.282 393.05 797.946 389.146 806.974 381.338C816.002 373.53 820.516 362.672 820.516 348.764C820.516 334.612 816.002 323.632 806.974 315.824C797.946 308.016 784.282 304.112 765.982 304.112H691.318L717.67 275.93V421.232ZM922.87 512V255.8H1116.48V303.38H981.796V464.42H1121.24V512H922.87ZM977.404 405.128V359.012H1100.75V405.128H977.404ZM1168.42 512V255.8H1277.85C1313.48 255.8 1341.17 264.096 1360.94 280.688C1380.7 297.036 1390.58 319.728 1390.58 348.764C1390.58 367.796 1386.07 384.266 1377.04 398.174C1368.01 411.838 1355.2 422.33 1338.61 429.65C1322.02 436.97 1302.25 440.63 1279.32 440.63H1201.36L1227.71 414.644V512H1168.42ZM1331.29 512L1267.24 419.036H1330.56L1395.34 512H1331.29ZM1227.71 421.232L1201.36 393.416H1276.02C1294.32 393.416 1307.99 389.512 1317.02 381.704C1326.04 373.652 1330.56 362.672 1330.56 348.764C1330.56 334.612 1326.04 323.632 1317.02 315.824C1307.99 308.016 1294.32 304.112 1276.02 304.112H1201.36L1227.71 275.93V421.232Z" fill="#3801FF"></path>
</g>
<g filter="url(#filter2_d_22_53)">
<path d="M625.06 731L689.95 584H730.9L796 731H752.74L701.92 604.37H718.3L667.48 731H625.06ZM660.55 702.44L671.26 671.78H743.08L753.79 702.44H660.55ZM807.788 731V584H877.298C893.538 584 907.818 587.01 920.138 593.03C932.458 599.05 942.048 607.52 948.908 618.44C955.908 629.36 959.408 642.38 959.408 657.5C959.408 672.48 955.908 685.5 948.908 696.56C942.048 707.48 932.458 715.95 920.138 721.97C907.818 727.99 893.538 731 877.298 731H807.788ZM849.368 697.82H875.618C884.018 697.82 891.298 696.28 897.458 693.2C903.758 689.98 908.658 685.36 912.158 679.34C915.658 673.18 917.408 665.9 917.408 657.5C917.408 648.96 915.658 641.68 912.158 635.66C908.658 629.64 903.758 625.09 897.458 622.01C891.298 618.79 884.018 617.18 875.618 617.18H849.368V697.82ZM981.284 731V584H1015.51L1076.41 683.96H1058.35L1117.57 584H1151.8L1152.22 731H1114L1113.58 642.17H1120.09L1075.78 716.51H1057.3L1011.73 642.17H1019.71V731H981.284ZM1181.65 731V584H1223.23V731H1181.65ZM1252.81 731V584H1287.04L1368.1 681.86H1351.93V584H1392.67V731H1358.44L1277.38 633.14H1293.55V731H1252.81Z" fill="#0058F9"></path>
</g>
<defs>
<filter id="filter0_d_22_53" x="81" y="36.1443" width="542.5" height="810.071" filterUnits="userSpaceOnUse" color-interpolation-filters="sRGB">
<feFlood flood-opacity="0" result="BackgroundImageFix"></feFlood>
<feColorMatrix in="SourceAlpha" type="matrix" values="0 0 0 0 0 0 0 0 0 0 0 0 0 0 0 0 0 0 127 0" result="hardAlpha"></feColorMatrix>
<feMorphology radius="2" operator="dilate" in="SourceAlpha" result="effect1_dropShadow_22_53"></feMorphology>
<feOffset dx="9" dy="8"></feOffset>
<feGaussianBlur stdDeviation="5"></feGaussianBlur>
<feComposite in2="hardAlpha" operator="out"></feComposite>
<feColorMatrix type="matrix" values="0 0 0 0 0 0 0 0 0 0 0 0 0 0 0 0 0 0 0.25 0"></feColorMatrix>
<feBlend mode="normal" in2="BackgroundImageFix" result="effect1_dropShadow_22_53"></feBlend>
<feBlend mode="normal" in="SourceGraphic" in2="effect1_dropShadow_22_53" result="shape"></feBlend>
</filter>
<filter id="filter1_d_22_53" x="655.378" y="251.8" width="760.961" height="280.2" filterUnits="userSpaceOnUse" color-interpolation-filters="sRGB">
<feFlood flood-opacity="0" result="BackgroundImageFix"></feFlood>
<feColorMatrix in="SourceAlpha" type="matrix" values="0 0 0 0 0 0 0 0 0 0 0 0 0 0 0 0 0 0 127 0" result="hardAlpha"></feColorMatrix>
<feMorphology radius="2" operator="dilate" in="SourceAlpha" result="effect1_dropShadow_22_53"></feMorphology>
<feOffset dx="9" dy="8"></feOffset>
<feGaussianBlur stdDeviation="5"></feGaussianBlur>
<feComposite in2="hardAlpha" operator="out"></feComposite>
<feColorMatrix type="matrix" values="0 0 0 0 0 0 0 0 0 0 0 0 0 0 0 0 0 0 0.25 0"></feColorMatrix>
<feBlend mode="normal" in2="BackgroundImageFix" result="effect1_dropShadow_22_53"></feBlend>
<feBlend mode="normal" in="SourceGraphic" in2="effect1_dropShadow_22_53" result="shape"></feBlend>
</filter>
<filter id="filter2_d_22_53" x="622.06" y="580" width="791.607" height="171" filterUnits="userSpaceOnUse" color-interpolation-filters="sRGB">
<feFlood flood-opacity="0" result="BackgroundImageFix"></feFlood>
<feColorMatrix in="SourceAlpha" type="matrix" values="0 0 0 0 0 0 0 0 0 0 0 0 0 0 0 0 0 0 127 0" result="hardAlpha"></feColorMatrix>
<feMorphology radius="2" operator="dilate" in="SourceAlpha" result="effect1_dropShadow_22_53"></feMorphology>
<feOffset dx="9" dy="8"></feOffset>
<feGaussianBlur stdDeviation="5"></feGaussianBlur>
<feComposite in2="hardAlpha" operator="out"></feComposite>
<feColorMatrix type="matrix" values="0 0 0 0 0 0 0 0 0 0 0 0 0 0 0 0 0 0 0.25 0"></feColorMatrix>
<feBlend mode="normal" in2="BackgroundImageFix" result="effect1_dropShadow_22_53"></feBlend>
<feBlend mode="normal" in="SourceGraphic" in2="effect1_dropShadow_22_53" result="shape"></feBlend>
</filter>
</defs>
</svg>
