<svg width="1013" height="91" viewBox="0 0 1013 91" fill="none" xmlns="http://www.w3.org/2000/svg">
<rect y="16" width="1013" height="60" rx="20" fill="white"></rect>
<path d="M27.7915 57.496C26.0348 57.496 24.4021 57.217 22.8935 56.659C21.4055 56.101 20.1138 55.3157 19.0185 54.303C17.9231 53.2697 17.0655 52.0607 16.4455 50.676C15.8461 49.2913 15.5465 47.7827 15.5465 46.15C15.5465 44.4967 15.8461 42.988 16.4455 41.624C17.0655 40.2393 17.9231 39.0407 19.0185 38.028C20.1138 36.9947 21.4055 36.199 22.8935 35.641C24.4021 35.083 26.0348 34.804 27.7915 34.804C29.5688 34.804 31.2015 35.083 32.6895 35.641C34.1775 36.199 35.4691 36.9947 36.5645 38.028C37.6598 39.0407 38.5071 40.2393 39.1065 41.624C39.7265 42.988 40.0365 44.4967 40.0365 46.15C40.0365 47.7827 39.7265 49.2913 39.1065 50.676C38.5071 52.0607 37.6598 53.2697 36.5645 54.303C35.4691 55.3157 34.1775 56.101 32.6895 56.659C31.2015 57.217 29.5688 57.496 27.7915 57.496ZM27.7915 51.575C28.4735 51.575 29.1038 51.451 29.6825 51.203C30.2818 50.955 30.7985 50.6037 31.2325 50.149C31.6871 49.6737 32.0385 49.1053 32.2865 48.444C32.5345 47.762 32.6585 46.9973 32.6585 46.15C32.6585 45.3027 32.5345 44.5483 32.2865 43.887C32.0385 43.205 31.6871 42.6367 31.2325 42.182C30.7985 41.7067 30.2818 41.345 29.6825 41.097C29.1038 40.849 28.4735 40.725 27.7915 40.725C27.1095 40.725 26.4688 40.849 25.8695 41.097C25.2908 41.345 24.7741 41.7067 24.3195 42.182C23.8855 42.6367 23.5445 43.205 23.2965 43.887C23.0485 44.5483 22.9245 45.3027 22.9245 46.15C22.9245 46.9973 23.0485 47.762 23.2965 48.444C23.5445 49.1053 23.8855 49.6737 24.3195 50.149C24.7741 50.6037 25.2908 50.955 25.8695 51.203C26.4688 51.451 27.1095 51.575 27.7915 51.575ZM42.4748 57V40.043H49.1398V45.158L48.0548 43.701C48.5715 42.3783 49.3981 41.3863 50.5348 40.725C51.6715 40.0637 53.0355 39.733 54.6268 39.733V45.933C54.3168 45.8917 54.0378 45.8607 53.7898 45.84C53.5625 45.8193 53.3248 45.809 53.0768 45.809C52.0228 45.809 51.1548 46.088 50.4728 46.646C49.8115 47.1833 49.4808 48.1237 49.4808 49.467V57H42.4748ZM65.0791 63.324C63.4051 63.324 61.8345 63.1483 60.3671 62.797C58.8998 62.4457 57.6391 61.9187 56.5851 61.216L58.9411 56.442C59.6025 56.9587 60.4395 57.3617 61.4521 57.651C62.4855 57.961 63.4568 58.116 64.3661 58.116C65.8128 58.116 66.8461 57.806 67.4661 57.186C68.0861 56.5867 68.3961 55.7187 68.3961 54.582V53.156L68.7061 47.886L68.7371 42.616V40.043H75.4021V53.621C75.4021 56.907 74.4928 59.3457 72.6741 60.937C70.8555 62.5283 68.3238 63.324 65.0791 63.324ZM63.7151 56.07C62.2891 56.07 60.9561 55.7393 59.7161 55.078C58.4761 54.396 57.4738 53.4453 56.7091 52.226C55.9445 51.0067 55.5621 49.56 55.5621 47.886C55.5621 46.212 55.9445 44.7653 56.7091 43.546C57.4738 42.3267 58.4761 41.3863 59.7161 40.725C60.9561 40.0637 62.2891 39.733 63.7151 39.733C65.1825 39.733 66.3811 40.0223 67.3111 40.601C68.2618 41.1797 68.9645 42.0787 69.4191 43.298C69.8738 44.4967 70.1011 46.026 70.1011 47.886C70.1011 49.746 69.8738 51.2857 69.4191 52.505C68.9645 53.7037 68.2618 54.6027 67.3111 55.202C66.3811 55.7807 65.1825 56.07 63.7151 56.07ZM65.5751 50.614C66.1331 50.614 66.6291 50.5003 67.0631 50.273C67.4971 50.0457 67.8381 49.7253 68.0861 49.312C68.3341 48.8987 68.4581 48.4233 68.4581 47.886C68.4581 47.328 68.3341 46.8527 68.0861 46.46C67.8381 46.0467 67.4971 45.7367 67.0631 45.53C66.6291 45.3027 66.1331 45.189 65.5751 45.189C65.0378 45.189 64.5418 45.3027 64.0871 45.53C63.6531 45.7367 63.3018 46.0467 63.0331 46.46C62.7851 46.8527 62.6611 47.328 62.6611 47.886C62.6611 48.4233 62.7851 48.8987 63.0331 49.312C63.3018 49.7253 63.6531 50.0457 64.0871 50.273C64.5418 50.5003 65.0378 50.614 65.5751 50.614ZM88.7612 57V53.993L88.2652 53.187V47.483C88.2652 46.6563 88.0069 46.026 87.4902 45.592C86.9942 45.158 86.1779 44.941 85.0412 44.941C84.2765 44.941 83.5015 45.065 82.7162 45.313C81.9309 45.5403 81.2592 45.8607 80.7012 46.274L78.4692 41.655C79.4612 41.035 80.6495 40.5597 82.0342 40.229C83.4189 39.8983 84.7725 39.733 86.0952 39.733C89.0092 39.733 91.2619 40.384 92.8532 41.686C94.4652 42.988 95.2712 45.0547 95.2712 47.886V57H88.7612ZM83.9562 57.31C82.5715 57.31 81.4142 57.0723 80.4842 56.597C79.5542 56.1217 78.8515 55.4913 78.3762 54.706C77.9009 53.9 77.6632 53.0113 77.6632 52.04C77.6632 50.9447 77.9422 50.0147 78.5002 49.25C79.0582 48.4853 79.9055 47.9067 81.0422 47.514C82.1995 47.1213 83.6565 46.925 85.4132 46.925H88.9472V50.304H86.5292C85.7852 50.304 85.2375 50.428 84.8862 50.676C84.5555 50.9033 84.3902 51.2547 84.3902 51.73C84.3902 52.1227 84.5349 52.4533 84.8242 52.722C85.1342 52.97 85.5475 53.094 86.0642 53.094C86.5395 53.094 86.9735 52.97 87.3662 52.722C87.7795 52.4533 88.0792 52.04 88.2652 51.482L89.1642 53.559C88.8955 54.8197 88.3272 55.76 87.4592 56.38C86.5912 57 85.4235 57.31 83.9562 57.31ZM98.299 57V40.043H104.964V45.003L103.631 43.577C104.292 42.2957 105.181 41.3347 106.297 40.694C107.434 40.0533 108.694 39.733 110.079 39.733C111.381 39.733 112.559 40.0017 113.613 40.539C114.667 41.0557 115.494 41.872 116.093 42.988C116.713 44.104 117.023 45.5507 117.023 47.328V57H110.017V48.537C110.017 47.483 109.831 46.739 109.459 46.305C109.087 45.8503 108.581 45.623 107.94 45.623C107.465 45.623 107.02 45.7367 106.607 45.964C106.214 46.1707 105.894 46.522 105.646 47.018C105.419 47.514 105.305 48.1857 105.305 49.033V57H98.299ZM120.066 57V40.043H127.072V57H120.066ZM123.569 38.679C122.287 38.679 121.264 38.338 120.5 37.656C119.735 36.974 119.353 36.1267 119.353 35.114C119.353 34.1013 119.735 33.254 120.5 32.572C121.264 31.89 122.287 31.549 123.569 31.549C124.85 31.549 125.873 31.8693 126.638 32.51C127.402 33.1507 127.785 33.9773 127.785 34.99C127.785 36.0647 127.402 36.9533 126.638 37.656C125.873 38.338 124.85 38.679 123.569 38.679ZM136.811 57.31C135.364 57.31 133.938 57.155 132.533 56.845C131.128 56.535 129.991 56.132 129.123 55.636L131.045 51.017C131.851 51.4923 132.781 51.8643 133.835 52.133C134.91 52.4017 135.953 52.536 136.966 52.536C137.813 52.536 138.382 52.4637 138.671 52.319C138.981 52.1743 139.136 51.978 139.136 51.73C139.136 51.482 138.96 51.3063 138.609 51.203C138.258 51.079 137.793 50.986 137.214 50.924C136.635 50.862 135.995 50.7897 135.292 50.707C134.61 50.6037 133.918 50.459 133.215 50.273C132.512 50.087 131.872 49.808 131.293 49.436C130.714 49.064 130.249 48.568 129.898 47.948C129.547 47.3073 129.371 46.5013 129.371 45.53C129.371 44.4553 129.691 43.484 130.332 42.616C130.993 41.748 131.965 41.0557 133.246 40.539C134.548 40.0017 136.15 39.733 138.051 39.733C139.291 39.733 140.531 39.8467 141.771 40.074C143.011 40.3013 144.075 40.6527 144.964 41.128L143.042 45.747C142.174 45.2717 141.316 44.9513 140.469 44.786C139.642 44.6 138.867 44.507 138.144 44.507C137.255 44.507 136.646 44.5897 136.315 44.755C136.005 44.9203 135.85 45.1063 135.85 45.313C135.85 45.561 136.026 45.747 136.377 45.871C136.728 45.995 137.193 46.088 137.772 46.15C138.351 46.212 138.981 46.2947 139.663 46.398C140.366 46.4807 141.058 46.6253 141.74 46.832C142.443 47.018 143.083 47.297 143.662 47.669C144.241 48.041 144.706 48.5473 145.057 49.188C145.408 49.808 145.584 50.6037 145.584 51.575C145.584 52.5877 145.264 53.5383 144.623 54.427C143.982 55.295 143.011 55.9977 141.709 56.535C140.407 57.0517 138.774 57.31 136.811 57.31ZM157.067 57.31C155.001 57.31 153.192 56.9277 151.642 56.163C150.113 55.3983 148.925 54.3547 148.077 53.032C147.23 51.6887 146.806 50.18 146.806 48.506C146.806 46.7907 147.22 45.2717 148.046 43.949C148.894 42.6263 150.041 41.593 151.487 40.849C152.955 40.105 154.598 39.733 156.416 39.733C158.09 39.733 159.63 40.0637 161.035 40.725C162.461 41.3863 163.598 42.368 164.445 43.67C165.313 44.972 165.747 46.584 165.747 48.506C165.747 48.754 165.737 49.033 165.716 49.343C165.696 49.6323 165.675 49.901 165.654 50.149H152.603V46.77H161.934L159.299 47.669C159.299 47.0077 159.175 46.4497 158.927 45.995C158.7 45.5197 158.38 45.158 157.966 44.91C157.553 44.6413 157.057 44.507 156.478 44.507C155.9 44.507 155.393 44.6413 154.959 44.91C154.546 45.158 154.226 45.5197 153.998 45.995C153.771 46.4497 153.657 47.0077 153.657 47.669V48.723C153.657 49.4463 153.802 50.0663 154.091 50.583C154.381 51.0997 154.794 51.4923 155.331 51.761C155.869 52.009 156.52 52.133 157.284 52.133C158.07 52.133 158.71 52.0297 159.206 51.823C159.723 51.6163 160.26 51.3063 160.818 50.893L164.476 54.582C163.65 55.4707 162.627 56.1527 161.407 56.628C160.209 57.0827 158.762 57.31 157.067 57.31ZM175.398 57.31C173.931 57.31 172.567 56.9587 171.306 56.256C170.066 55.5327 169.074 54.52 168.33 53.218C167.586 51.8953 167.214 50.3247 167.214 48.506C167.214 46.6873 167.586 45.127 168.33 43.825C169.074 42.5023 170.066 41.4897 171.306 40.787C172.567 40.0843 173.931 39.733 175.398 39.733C176.886 39.733 178.106 40.0533 179.056 40.694C180.007 41.314 180.71 42.275 181.164 43.577C181.619 44.8583 181.846 46.5013 181.846 48.506C181.846 50.5313 181.629 52.195 181.195 53.497C180.782 54.799 180.1 55.76 179.149 56.38C178.219 57 176.969 57.31 175.398 57.31ZM177.072 51.854C177.589 51.854 178.054 51.73 178.467 51.482C178.881 51.234 179.211 50.862 179.459 50.366C179.707 49.8493 179.831 49.2293 179.831 48.506C179.831 47.762 179.707 47.1523 179.459 46.677C179.211 46.181 178.881 45.809 178.467 45.561C178.054 45.313 177.589 45.189 177.072 45.189C176.556 45.189 176.091 45.313 175.677 45.561C175.264 45.809 174.933 46.181 174.685 46.677C174.437 47.1523 174.313 47.762 174.313 48.506C174.313 49.2293 174.437 49.8493 174.685 50.366C174.933 50.862 175.264 51.234 175.677 51.482C176.091 51.73 176.556 51.854 177.072 51.854ZM180.048 57V54.706L180.017 48.506L179.707 42.306V33.998H186.713V57H180.048ZM199.327 57V35.3H209.774C211.799 35.3 213.545 35.6307 215.013 36.292C216.501 36.9533 217.648 37.904 218.454 39.144C219.26 40.3633 219.663 41.81 219.663 43.484C219.663 45.158 219.26 46.6047 218.454 47.824C217.648 49.0433 216.501 49.994 215.013 50.676C213.545 51.3373 211.799 51.668 209.774 51.668H203.388L206.643 48.537V57H199.327ZM206.643 49.343L203.388 46.026H209.309C210.321 46.026 211.065 45.7987 211.541 45.344C212.037 44.8893 212.285 44.2693 212.285 43.484C212.285 42.6987 212.037 42.0787 211.541 41.624C211.065 41.1693 210.321 40.942 209.309 40.942H203.388L206.643 37.625V49.343ZM222.062 57V35.3H232.757C235.175 35.3 237.304 35.7443 239.143 36.633C240.982 37.501 242.419 38.741 243.452 40.353C244.485 41.965 245.002 43.8973 245.002 46.15C245.002 48.382 244.485 50.3143 243.452 51.947C242.419 53.559 240.982 54.8093 239.143 55.698C237.304 56.566 235.175 57 232.757 57H222.062ZM229.378 51.296H232.447C233.48 51.296 234.379 51.0997 235.144 50.707C235.929 50.3143 236.539 49.7357 236.973 48.971C237.407 48.1857 237.624 47.2453 237.624 46.15C237.624 45.034 237.407 44.0937 236.973 43.329C236.539 42.5643 235.929 41.9857 235.144 41.593C234.379 41.2003 233.48 41.004 232.447 41.004H229.378V51.296ZM247.673 57V35.3H265.312V40.818H254.989V57H247.673ZM254.493 50.056V44.538H264.041V50.056H254.493ZM283.334 57.31C281.888 57.31 280.462 57.155 279.056 56.845C277.651 56.535 276.514 56.132 275.646 55.636L277.568 51.017C278.374 51.4923 279.304 51.8643 280.358 52.133C281.433 52.4017 282.477 52.536 283.489 52.536C284.337 52.536 284.905 52.4637 285.194 52.319C285.504 52.1743 285.659 51.978 285.659 51.73C285.659 51.482 285.484 51.3063 285.132 51.203C284.781 51.079 284.316 50.986 283.737 50.924C283.159 50.862 282.518 50.7897 281.815 50.707C281.133 50.6037 280.441 50.459 279.738 50.273C279.036 50.087 278.395 49.808 277.816 49.436C277.238 49.064 276.773 48.568 276.421 47.948C276.07 47.3073 275.894 46.5013 275.894 45.53C275.894 44.4553 276.215 43.484 276.855 42.616C277.517 41.748 278.488 41.0557 279.769 40.539C281.071 40.0017 282.673 39.733 284.574 39.733C285.814 39.733 287.054 39.8467 288.294 40.074C289.534 40.3013 290.599 40.6527 291.487 41.128L289.565 45.747C288.697 45.2717 287.84 44.9513 286.992 44.786C286.166 44.6 285.391 44.507 284.667 44.507C283.779 44.507 283.169 44.5897 282.838 44.755C282.528 44.9203 282.373 45.1063 282.373 45.313C282.373 45.561 282.549 45.747 282.9 45.871C283.252 45.995 283.717 46.088 284.295 46.15C284.874 46.212 285.504 46.2947 286.186 46.398C286.889 46.4807 287.581 46.6253 288.263 46.832C288.966 47.018 289.607 47.297 290.185 47.669C290.764 48.041 291.229 48.5473 291.58 49.188C291.932 49.808 292.107 50.6037 292.107 51.575C292.107 52.5877 291.787 53.5383 291.146 54.427C290.506 55.295 289.534 55.9977 288.232 56.535C286.93 57.0517 285.298 57.31 283.334 57.31ZM302.413 57.31C300.077 57.31 298.259 56.752 296.957 55.636C295.655 54.4993 295.004 52.7633 295.004 50.428V36.23H302.01V50.366C302.01 50.8827 302.144 51.2857 302.413 51.575C302.702 51.8643 303.053 52.009 303.467 52.009C304.066 52.009 304.593 51.854 305.048 51.544L306.722 56.411C306.184 56.721 305.533 56.9483 304.769 57.093C304.025 57.2377 303.239 57.31 302.413 57.31ZM292.679 45.158V40.043H305.482V45.158H292.679ZM316.992 57.31C315.07 57.31 313.365 56.938 311.877 56.194C310.41 55.4293 309.253 54.3857 308.405 53.063C307.558 51.7403 307.134 50.2213 307.134 48.506C307.134 46.7907 307.558 45.2717 308.405 43.949C309.253 42.6263 310.41 41.593 311.877 40.849C313.365 40.105 315.07 39.733 316.992 39.733C318.914 39.733 320.619 40.105 322.107 40.849C323.595 41.593 324.753 42.6263 325.579 43.949C326.427 45.2717 326.85 46.7907 326.85 48.506C326.85 50.2213 326.427 51.7403 325.579 53.063C324.753 54.3857 323.595 55.4293 322.107 56.194C320.619 56.938 318.914 57.31 316.992 57.31ZM316.992 51.854C317.509 51.854 317.974 51.73 318.387 51.482C318.801 51.234 319.131 50.862 319.379 50.366C319.627 49.8493 319.751 49.2293 319.751 48.506C319.751 47.762 319.627 47.1523 319.379 46.677C319.131 46.181 318.801 45.809 318.387 45.561C317.974 45.313 317.509 45.189 316.992 45.189C316.476 45.189 316.011 45.313 315.597 45.561C315.184 45.809 314.853 46.181 314.605 46.677C314.357 47.1523 314.233 47.762 314.233 48.506C314.233 49.2293 314.357 49.8493 314.605 50.366C314.853 50.862 315.184 51.234 315.597 51.482C316.011 51.73 316.476 51.854 316.992 51.854ZM329.043 57V40.043H335.708V45.158L334.623 43.701C335.14 42.3783 335.966 41.3863 337.103 40.725C338.24 40.0637 339.604 39.733 341.195 39.733V45.933C340.885 45.8917 340.606 45.8607 340.358 45.84C340.131 45.8193 339.893 45.809 339.645 45.809C338.591 45.809 337.723 46.088 337.041 46.646C336.38 47.1833 336.049 48.1237 336.049 49.467V57H329.043ZM352.503 57V53.993L352.007 53.187V47.483C352.007 46.6563 351.749 46.026 351.232 45.592C350.736 45.158 349.92 44.941 348.783 44.941C348.019 44.941 347.244 45.065 346.458 45.313C345.673 45.5403 345.001 45.8607 344.443 46.274L342.211 41.655C343.203 41.035 344.392 40.5597 345.776 40.229C347.161 39.8983 348.515 39.733 349.837 39.733C352.751 39.733 355.004 40.384 356.595 41.686C358.207 42.988 359.013 45.0547 359.013 47.886V57H352.503ZM347.698 57.31C346.314 57.31 345.156 57.0723 344.226 56.597C343.296 56.1217 342.594 55.4913 342.118 54.706C341.643 53.9 341.405 53.0113 341.405 52.04C341.405 50.9447 341.684 50.0147 342.242 49.25C342.8 48.4853 343.648 47.9067 344.784 47.514C345.942 47.1213 347.399 46.925 349.155 46.925H352.689V50.304H350.271C349.527 50.304 348.98 50.428 348.628 50.676C348.298 50.9033 348.132 51.2547 348.132 51.73C348.132 52.1227 348.277 52.4533 348.566 52.722C348.876 52.97 349.29 53.094 349.806 53.094C350.282 53.094 350.716 52.97 351.108 52.722C351.522 52.4533 351.821 52.04 352.007 51.482L352.906 53.559C352.638 54.8197 352.069 55.76 351.201 56.38C350.333 57 349.166 57.31 347.698 57.31ZM370.962 63.324C369.288 63.324 367.717 63.1483 366.25 62.797C364.783 62.4457 363.522 61.9187 362.468 61.216L364.824 56.442C365.485 56.9587 366.322 57.3617 367.335 57.651C368.368 57.961 369.34 58.116 370.249 58.116C371.696 58.116 372.729 57.806 373.349 57.186C373.969 56.5867 374.279 55.7187 374.279 54.582V53.156L374.589 47.886L374.62 42.616V40.043H381.285V53.621C381.285 56.907 380.376 59.3457 378.557 60.937C376.738 62.5283 374.207 63.324 370.962 63.324ZM369.598 56.07C368.172 56.07 366.839 55.7393 365.599 55.078C364.359 54.396 363.357 53.4453 362.592 52.226C361.827 51.0067 361.445 49.56 361.445 47.886C361.445 46.212 361.827 44.7653 362.592 43.546C363.357 42.3267 364.359 41.3863 365.599 40.725C366.839 40.0637 368.172 39.733 369.598 39.733C371.065 39.733 372.264 40.0223 373.194 40.601C374.145 41.1797 374.847 42.0787 375.302 43.298C375.757 44.4967 375.984 46.026 375.984 47.886C375.984 49.746 375.757 51.2857 375.302 52.505C374.847 53.7037 374.145 54.6027 373.194 55.202C372.264 55.7807 371.065 56.07 369.598 56.07ZM371.458 50.614C372.016 50.614 372.512 50.5003 372.946 50.273C373.38 50.0457 373.721 49.7253 373.969 49.312C374.217 48.8987 374.341 48.4233 374.341 47.886C374.341 47.328 374.217 46.8527 373.969 46.46C373.721 46.0467 373.38 45.7367 372.946 45.53C372.512 45.3027 372.016 45.189 371.458 45.189C370.921 45.189 370.425 45.3027 369.97 45.53C369.536 45.7367 369.185 46.0467 368.916 46.46C368.668 46.8527 368.544 47.328 368.544 47.886C368.544 48.4233 368.668 48.8987 368.916 49.312C369.185 49.7253 369.536 50.0457 369.97 50.273C370.425 50.5003 370.921 50.614 371.458 50.614ZM393.745 57.31C391.678 57.31 389.87 56.9277 388.32 56.163C386.791 55.3983 385.602 54.3547 384.755 53.032C383.908 51.6887 383.484 50.18 383.484 48.506C383.484 46.7907 383.897 45.2717 384.724 43.949C385.571 42.6263 386.718 41.593 388.165 40.849C389.632 40.105 391.275 39.733 393.094 39.733C394.768 39.733 396.308 40.0637 397.713 40.725C399.139 41.3863 400.276 42.368 401.123 43.67C401.991 44.972 402.425 46.584 402.425 48.506C402.425 48.754 402.415 49.033 402.394 49.343C402.373 49.6323 402.353 49.901 402.332 50.149H389.281V46.77H398.612L395.977 47.669C395.977 47.0077 395.853 46.4497 395.605 45.995C395.378 45.5197 395.057 45.158 394.644 44.91C394.231 44.6413 393.735 44.507 393.156 44.507C392.577 44.507 392.071 44.6413 391.637 44.91C391.224 45.158 390.903 45.5197 390.676 45.995C390.449 46.4497 390.335 47.0077 390.335 47.669V48.723C390.335 49.4463 390.48 50.0663 390.769 50.583C391.058 51.0997 391.472 51.4923 392.009 51.761C392.546 52.009 393.197 52.133 393.962 52.133C394.747 52.133 395.388 52.0297 395.884 51.823C396.401 51.6163 396.938 51.3063 397.496 50.893L401.154 54.582C400.327 55.4707 399.304 56.1527 398.085 56.628C396.886 57.0827 395.44 57.31 393.745 57.31ZM407.798 57.31C406.641 57.31 405.669 56.938 404.884 56.194C404.099 55.4293 403.706 54.458 403.706 53.28C403.706 52.0813 404.099 51.1203 404.884 50.397C405.669 49.6737 406.641 49.312 407.798 49.312C408.955 49.312 409.927 49.6737 410.712 50.397C411.497 51.1203 411.89 52.0813 411.89 53.28C411.89 54.458 411.497 55.4293 410.712 56.194C409.927 56.938 408.955 57.31 407.798 57.31ZM423.562 57V35.3H434.009C436.034 35.3 437.781 35.6307 439.248 36.292C440.736 36.9533 441.883 37.904 442.689 39.144C443.495 40.3633 443.898 41.81 443.898 43.484C443.898 45.158 443.495 46.6047 442.689 47.824C441.883 49.0433 440.736 49.994 439.248 50.676C437.781 51.3373 436.034 51.668 434.009 51.668H427.623L430.878 48.537V57H423.562ZM430.878 49.343L427.623 46.026H433.544C434.557 46.026 435.301 45.7987 435.776 45.344C436.272 44.8893 436.52 44.2693 436.52 43.484C436.52 42.6987 436.272 42.0787 435.776 41.624C435.301 41.1693 434.557 40.942 433.544 40.942H427.623L430.878 37.625V49.343ZM455.442 57.31C453.376 57.31 451.567 56.9277 450.017 56.163C448.488 55.3983 447.3 54.3547 446.452 53.032C445.605 51.6887 445.181 50.18 445.181 48.506C445.181 46.7907 445.595 45.2717 446.421 43.949C447.269 42.6263 448.416 41.593 449.862 40.849C451.33 40.105 452.973 39.733 454.791 39.733C456.465 39.733 458.005 40.0637 459.41 40.725C460.836 41.3863 461.973 42.368 462.82 43.67C463.688 44.972 464.122 46.584 464.122 48.506C464.122 48.754 464.112 49.033 464.091 49.343C464.071 49.6323 464.05 49.901 464.029 50.149H450.978V46.77H460.309L457.674 47.669C457.674 47.0077 457.55 46.4497 457.302 45.995C457.075 45.5197 456.755 45.158 456.341 44.91C455.928 44.6413 455.432 44.507 454.853 44.507C454.275 44.507 453.768 44.6413 453.334 44.91C452.921 45.158 452.601 45.5197 452.373 45.995C452.146 46.4497 452.032 47.0077 452.032 47.669V48.723C452.032 49.4463 452.177 50.0663 452.466 50.583C452.756 51.0997 453.169 51.4923 453.706 51.761C454.244 52.009 454.895 52.133 455.659 52.133C456.445 52.133 457.085 52.0297 457.581 51.823C458.098 51.6163 458.635 51.3063 459.193 50.893L462.851 54.582C462.025 55.4707 461.002 56.1527 459.782 56.628C458.584 57.0827 457.137 57.31 455.442 57.31ZM466.333 57V40.043H472.998V45.158L471.913 43.701C472.43 42.3783 473.257 41.3863 474.393 40.725C475.53 40.0637 476.894 39.733 478.485 39.733V45.933C478.175 45.8917 477.896 45.8607 477.648 45.84C477.421 45.8193 477.183 45.809 476.935 45.809C475.881 45.809 475.013 46.088 474.331 46.646C473.67 47.1833 473.339 48.1237 473.339 49.467V57H466.333ZM480.013 50.676V45.406H489.313V50.676H480.013ZM501.664 57.31C499.721 57.31 497.996 56.938 496.487 56.194C494.978 55.45 493.79 54.4167 492.922 53.094C492.075 51.7507 491.651 50.2213 491.651 48.506C491.651 46.7907 492.075 45.2717 492.922 43.949C493.79 42.6263 494.978 41.593 496.487 40.849C497.996 40.105 499.721 39.733 501.664 39.733C503.731 39.733 505.498 40.1773 506.965 41.066C508.432 41.9547 509.445 43.1843 510.003 44.755L504.578 47.421C504.227 46.6357 503.793 46.0673 503.276 45.716C502.78 45.3647 502.232 45.189 501.633 45.189C501.116 45.189 500.631 45.313 500.176 45.561C499.742 45.809 499.391 46.181 499.122 46.677C498.874 47.1523 498.75 47.762 498.75 48.506C498.75 49.25 498.874 49.87 499.122 50.366C499.391 50.862 499.742 51.234 500.176 51.482C500.631 51.73 501.116 51.854 501.633 51.854C502.232 51.854 502.78 51.6783 503.276 51.327C503.793 50.9757 504.227 50.4073 504.578 49.622L510.003 52.288C509.445 53.8587 508.432 55.0883 506.965 55.977C505.498 56.8657 503.731 57.31 501.664 57.31ZM511.622 57V33.998H518.628V57H511.622ZM521.734 57V40.043H528.74V57H521.734ZM525.237 38.679C523.955 38.679 522.932 38.338 522.168 37.656C521.403 36.974 521.021 36.1267 521.021 35.114C521.021 34.1013 521.403 33.254 522.168 32.572C522.932 31.89 523.955 31.549 525.237 31.549C526.518 31.549 527.541 31.8693 528.306 32.51C529.07 33.1507 529.453 33.9773 529.453 34.99C529.453 36.0647 529.07 36.9533 528.306 37.656C527.541 38.338 526.518 38.679 525.237 38.679ZM541.207 57.31C539.14 57.31 537.332 56.9277 535.782 56.163C534.253 55.3983 533.064 54.3547 532.217 53.032C531.37 51.6887 530.946 50.18 530.946 48.506C530.946 46.7907 531.359 45.2717 532.186 43.949C533.033 42.6263 534.18 41.593 535.627 40.849C537.094 40.105 538.737 39.733 540.556 39.733C542.23 39.733 543.77 40.0637 545.175 40.725C546.601 41.3863 547.738 42.368 548.585 43.67C549.453 44.972 549.887 46.584 549.887 48.506C549.887 48.754 549.877 49.033 549.856 49.343C549.835 49.6323 549.815 49.901 549.794 50.149H536.743V46.77H546.074L543.439 47.669C543.439 47.0077 543.315 46.4497 543.067 45.995C542.84 45.5197 542.519 45.158 542.106 44.91C541.693 44.6413 541.197 44.507 540.618 44.507C540.039 44.507 539.533 44.6413 539.099 44.91C538.686 45.158 538.365 45.5197 538.138 45.995C537.911 46.4497 537.797 47.0077 537.797 47.669V48.723C537.797 49.4463 537.942 50.0663 538.231 50.583C538.52 51.0997 538.934 51.4923 539.471 51.761C540.008 52.009 540.659 52.133 541.424 52.133C542.209 52.133 542.85 52.0297 543.346 51.823C543.863 51.6163 544.4 51.3063 544.958 50.893L548.616 54.582C547.789 55.4707 546.766 56.1527 545.547 56.628C544.348 57.0827 542.902 57.31 541.207 57.31ZM552.098 57V40.043H558.763V45.003L557.43 43.577C558.091 42.2957 558.98 41.3347 560.096 40.694C561.233 40.0533 562.493 39.733 563.878 39.733C565.18 39.733 566.358 40.0017 567.412 40.539C568.466 41.0557 569.293 41.872 569.892 42.988C570.512 44.104 570.822 45.5507 570.822 47.328V57H563.816V48.537C563.816 47.483 563.63 46.739 563.258 46.305C562.886 45.8503 562.38 45.623 561.739 45.623C561.264 45.623 560.819 45.7367 560.406 45.964C560.013 46.1707 559.693 46.522 559.445 47.018C559.218 47.514 559.104 48.1857 559.104 49.033V57H552.098ZM582.048 57.31C579.713 57.31 577.894 56.752 576.592 55.636C575.29 54.4993 574.639 52.7633 574.639 50.428V36.23H581.645V50.366C581.645 50.8827 581.78 51.2857 582.048 51.575C582.338 51.8643 582.689 52.009 583.102 52.009C583.702 52.009 584.229 51.854 584.683 51.544L586.357 56.411C585.82 56.721 585.169 56.9483 584.404 57.093C583.66 57.2377 582.875 57.31 582.048 57.31ZM572.314 45.158V40.043H585.117V45.158H572.314ZM608.732 57.31C607.265 57.31 606.046 57 605.074 56.38C604.124 55.7393 603.421 54.7783 602.966 53.497C602.512 52.195 602.284 50.5417 602.284 48.537C602.284 46.491 602.491 44.8273 602.904 43.546C603.338 42.244 604.031 41.283 604.981 40.663C605.932 40.043 607.182 39.733 608.732 39.733C610.22 39.733 611.584 40.0947 612.824 40.818C614.064 41.5207 615.056 42.5333 615.8 43.856C616.544 45.158 616.916 46.7183 616.916 48.537C616.916 50.3557 616.544 51.9263 615.8 53.249C615.056 54.551 614.064 55.5533 612.824 56.256C611.584 56.9587 610.22 57.31 608.732 57.31ZM597.417 63.014V40.043H604.082V42.337L604.113 48.537L604.423 54.737V63.014H597.417ZM607.058 51.854C607.575 51.854 608.04 51.73 608.453 51.482C608.867 51.234 609.197 50.862 609.445 50.366C609.693 49.87 609.817 49.2603 609.817 48.537C609.817 47.793 609.693 47.173 609.445 46.677C609.197 46.181 608.867 45.809 608.453 45.561C608.04 45.313 607.575 45.189 607.058 45.189C606.542 45.189 606.077 45.313 605.663 45.561C605.25 45.809 604.919 46.181 604.671 46.677C604.423 47.173 604.299 47.793 604.299 48.537C604.299 49.2603 604.423 49.87 604.671 50.366C604.919 50.862 605.25 51.234 605.663 51.482C606.077 51.73 606.542 51.854 607.058 51.854ZM619.123 57V40.043H625.788V45.158L624.703 43.701C625.22 42.3783 626.047 41.3863 627.183 40.725C628.32 40.0637 629.684 39.733 631.275 39.733V45.933C630.965 45.8917 630.686 45.8607 630.438 45.84C630.211 45.8193 629.973 45.809 629.725 45.809C628.671 45.809 627.803 46.088 627.121 46.646C626.46 47.1833 626.129 48.1237 626.129 49.467V57H619.123ZM633.261 57V40.043H640.267V57H633.261ZM636.764 38.679C635.483 38.679 634.46 38.338 633.695 37.656C632.93 36.974 632.548 36.1267 632.548 35.114C632.548 34.1013 632.93 33.254 633.695 32.572C634.46 31.89 635.483 31.549 636.764 31.549C638.045 31.549 639.068 31.8693 639.833 32.51C640.598 33.1507 640.98 33.9773 640.98 34.99C640.98 36.0647 640.598 36.9533 639.833 37.656C639.068 38.338 638.045 38.679 636.764 38.679ZM648.177 57L641.357 40.043H648.549L653.726 53.807H650.099L655.617 40.043H662.251L655.431 57H648.177ZM672.978 57V53.993L672.482 53.187V47.483C672.482 46.6563 672.224 46.026 671.707 45.592C671.211 45.158 670.395 44.941 669.258 44.941C668.493 44.941 667.718 45.065 666.933 45.313C666.148 45.5403 665.476 45.8607 664.918 46.274L662.686 41.655C663.678 41.035 664.866 40.5597 666.251 40.229C667.636 39.8983 668.989 39.733 670.312 39.733C673.226 39.733 675.479 40.384 677.07 41.686C678.682 42.988 679.488 45.0547 679.488 47.886V57H672.978ZM668.173 57.31C666.788 57.31 665.631 57.0723 664.701 56.597C663.771 56.1217 663.068 55.4913 662.593 54.706C662.118 53.9 661.88 53.0113 661.88 52.04C661.88 50.9447 662.159 50.0147 662.717 49.25C663.275 48.4853 664.122 47.9067 665.259 47.514C666.416 47.1213 667.873 46.925 669.63 46.925H673.164V50.304H670.746C670.002 50.304 669.454 50.428 669.103 50.676C668.772 50.9033 668.607 51.2547 668.607 51.73C668.607 52.1227 668.752 52.4533 669.041 52.722C669.351 52.97 669.764 53.094 670.281 53.094C670.756 53.094 671.19 52.97 671.583 52.722C671.996 52.4533 672.296 52.04 672.482 51.482L673.381 53.559C673.112 54.8197 672.544 55.76 671.676 56.38C670.808 57 669.64 57.31 668.173 57.31ZM691.933 57.31C689.99 57.31 688.264 56.938 686.756 56.194C685.247 55.45 684.059 54.4167 683.191 53.094C682.343 51.7507 681.92 50.2213 681.92 48.506C681.92 46.7907 682.343 45.2717 683.191 43.949C684.059 42.6263 685.247 41.593 686.756 40.849C688.264 40.105 689.99 39.733 691.933 39.733C693.999 39.733 695.766 40.1773 697.234 41.066C698.701 41.9547 699.714 43.1843 700.272 44.755L694.847 47.421C694.495 46.6357 694.061 46.0673 693.545 45.716C693.049 45.3647 692.501 45.189 691.902 45.189C691.385 45.189 690.899 45.313 690.445 45.561C690.011 45.809 689.659 46.181 689.391 46.677C689.143 47.1523 689.019 47.762 689.019 48.506C689.019 49.25 689.143 49.87 689.391 50.366C689.659 50.862 690.011 51.234 690.445 51.482C690.899 51.73 691.385 51.854 691.902 51.854C692.501 51.854 693.049 51.6783 693.545 51.327C694.061 50.9757 694.495 50.4073 694.847 49.622L700.272 52.288C699.714 53.8587 698.701 55.0883 697.234 55.977C695.766 56.8657 693.999 57.31 691.933 57.31ZM705.611 63.324C704.681 63.324 703.73 63.1793 702.759 62.89C701.808 62.6213 701.043 62.2597 700.465 61.805L702.79 57C703.141 57.2687 703.534 57.4857 703.968 57.651C704.422 57.8163 704.856 57.899 705.27 57.899C705.89 57.899 706.365 57.7647 706.696 57.496C707.026 57.248 707.295 56.8657 707.502 56.349L708.215 54.551L708.711 53.869L714.136 40.043H720.77L713.795 57.341C713.175 58.891 712.451 60.1 711.625 60.968C710.819 61.836 709.909 62.4457 708.897 62.797C707.905 63.1483 706.809 63.324 705.611 63.324ZM707.254 57.775L699.876 40.043H707.068L712.152 53.249L707.254 57.775ZM724.065 57.31C722.907 57.31 721.936 56.938 721.151 56.194C720.365 55.4293 719.973 54.458 719.973 53.28C719.973 52.0813 720.365 51.1203 721.151 50.397C721.936 49.6737 722.907 49.312 724.065 49.312C725.222 49.312 726.193 49.6737 726.979 50.397C727.764 51.1203 728.157 52.0813 728.157 53.28C728.157 54.458 727.764 55.4293 726.979 56.194C726.193 56.938 725.222 57.31 724.065 57.31ZM739.829 57V35.3H749.966C753.293 35.3 755.825 36.0337 757.561 37.501C759.297 38.9683 760.165 40.9627 760.165 43.484C760.165 45.158 759.762 46.6047 758.956 47.824C758.15 49.0227 757.003 49.9423 755.515 50.583C754.047 51.2237 752.301 51.544 750.276 51.544H743.89L747.145 48.537V57H739.829ZM752.818 57L747.486 49.095H755.236L760.63 57H752.818ZM747.145 49.343L743.89 46.026H749.811C750.823 46.026 751.567 45.7987 752.043 45.344C752.539 44.8893 752.787 44.2693 752.787 43.484C752.787 42.6987 752.539 42.0787 752.043 41.624C751.567 41.1693 750.823 40.942 749.811 40.942H743.89L747.145 37.625V49.343ZM772.072 57.31C770.005 57.31 768.197 56.9277 766.647 56.163C765.118 55.3983 763.929 54.3547 763.082 53.032C762.235 51.6887 761.811 50.18 761.811 48.506C761.811 46.7907 762.224 45.2717 763.051 43.949C763.898 42.6263 765.045 41.593 766.492 40.849C767.959 40.105 769.602 39.733 771.421 39.733C773.095 39.733 774.635 40.0637 776.04 40.725C777.466 41.3863 778.603 42.368 779.45 43.67C780.318 44.972 780.752 46.584 780.752 48.506C780.752 48.754 780.742 49.033 780.721 49.343C780.7 49.6323 780.68 49.901 780.659 50.149H767.608V46.77H776.939L774.304 47.669C774.304 47.0077 774.18 46.4497 773.932 45.995C773.705 45.5197 773.384 45.158 772.971 44.91C772.558 44.6413 772.062 44.507 771.483 44.507C770.904 44.507 770.398 44.6413 769.964 44.91C769.551 45.158 769.23 45.5197 769.003 45.995C768.776 46.4497 768.662 47.0077 768.662 47.669V48.723C768.662 49.4463 768.807 50.0663 769.096 50.583C769.385 51.0997 769.799 51.4923 770.336 51.761C770.873 52.009 771.524 52.133 772.289 52.133C773.074 52.133 773.715 52.0297 774.211 51.823C774.728 51.6163 775.265 51.3063 775.823 50.893L779.481 54.582C778.654 55.4707 777.631 56.1527 776.412 56.628C775.213 57.0827 773.767 57.31 772.072 57.31ZM792.77 57V53.993L792.274 53.187V47.483C792.274 46.6563 792.016 46.026 791.499 45.592C791.003 45.158 790.187 44.941 789.05 44.941C788.285 44.941 787.51 45.065 786.725 45.313C785.94 45.5403 785.268 45.8607 784.71 46.274L782.478 41.655C783.47 41.035 784.658 40.5597 786.043 40.229C787.428 39.8983 788.781 39.733 790.104 39.733C793.018 39.733 795.271 40.384 796.862 41.686C798.474 42.988 799.28 45.0547 799.28 47.886V57H792.77ZM787.965 57.31C786.58 57.31 785.423 57.0723 784.493 56.597C783.563 56.1217 782.86 55.4913 782.385 54.706C781.91 53.9 781.672 53.0113 781.672 52.04C781.672 50.9447 781.951 50.0147 782.509 49.25C783.067 48.4853 783.914 47.9067 785.051 47.514C786.208 47.1213 787.665 46.925 789.422 46.925H792.956V50.304H790.538C789.794 50.304 789.246 50.428 788.895 50.676C788.564 50.9033 788.399 51.2547 788.399 51.73C788.399 52.1227 788.544 52.4533 788.833 52.722C789.143 52.97 789.556 53.094 790.073 53.094C790.548 53.094 790.982 52.97 791.375 52.722C791.788 52.4533 792.088 52.04 792.274 51.482L793.173 53.559C792.904 54.8197 792.336 55.76 791.468 56.38C790.6 57 789.432 57.31 787.965 57.31ZM802.308 57V33.998H809.314V57H802.308ZM812.264 50.676V45.406H821.564V50.676H812.264ZM832.985 57.31C830.65 57.31 828.831 56.752 827.529 55.636C826.227 54.4993 825.576 52.7633 825.576 50.428V36.23H832.582V50.366C832.582 50.8827 832.716 51.2857 832.985 51.575C833.274 51.8643 833.626 52.009 834.039 52.009C834.638 52.009 835.165 51.854 835.62 51.544L837.294 56.411C836.757 56.721 836.106 56.9483 835.341 57.093C834.597 57.2377 833.812 57.31 832.985 57.31ZM823.251 45.158V40.043H836.054V45.158H823.251ZM839.06 57V40.043H846.066V57H839.06ZM842.563 38.679C841.281 38.679 840.258 38.338 839.494 37.656C838.729 36.974 838.347 36.1267 838.347 35.114C838.347 34.1013 838.729 33.254 839.494 32.572C840.258 31.89 841.281 31.549 842.563 31.549C843.844 31.549 844.867 31.8693 845.632 32.51C846.396 33.1507 846.779 33.9773 846.779 34.99C846.779 36.0647 846.396 36.9533 845.632 37.656C844.867 38.338 843.844 38.679 842.563 38.679ZM849.171 57V40.043H855.836V44.91L854.472 43.546C855.113 42.2647 855.97 41.314 857.045 40.694C858.12 40.0533 859.318 39.733 860.641 39.733C862.129 39.733 863.441 40.1257 864.578 40.911C865.735 41.6757 866.51 42.895 866.903 44.569L864.764 44.228C865.384 42.8227 866.283 41.7273 867.461 40.942C868.66 40.136 870.044 39.733 871.615 39.733C872.896 39.733 874.043 40.0017 875.056 40.539C876.089 41.0557 876.895 41.872 877.474 42.988C878.073 44.104 878.373 45.5507 878.373 47.328V57H871.367V48.537C871.367 47.483 871.191 46.739 870.84 46.305C870.489 45.8503 870.034 45.623 869.476 45.623C869.063 45.623 868.691 45.7263 868.36 45.933C868.029 46.1397 867.761 46.4703 867.554 46.925C867.368 47.359 867.275 47.9583 867.275 48.723V57H860.269V48.537C860.269 47.483 860.104 46.739 859.773 46.305C859.442 45.8503 858.977 45.623 858.378 45.623C857.965 45.623 857.593 45.7263 857.262 45.933C856.931 46.1397 856.663 46.4703 856.456 46.925C856.27 47.359 856.177 47.9583 856.177 48.723V57H849.171ZM891.077 57.31C889.01 57.31 887.202 56.9277 885.652 56.163C884.123 55.3983 882.934 54.3547 882.087 53.032C881.24 51.6887 880.816 50.18 880.816 48.506C880.816 46.7907 881.229 45.2717 882.056 43.949C882.903 42.6263 884.05 41.593 885.497 40.849C886.964 40.105 888.607 39.733 890.426 39.733C892.1 39.733 893.64 40.0637 895.045 40.725C896.471 41.3863 897.608 42.368 898.455 43.67C899.323 44.972 899.757 46.584 899.757 48.506C899.757 48.754 899.747 49.033 899.726 49.343C899.705 49.6323 899.685 49.901 899.664 50.149H886.613V46.77H895.944L893.309 47.669C893.309 47.0077 893.185 46.4497 892.937 45.995C892.71 45.5197 892.389 45.158 891.976 44.91C891.563 44.6413 891.067 44.507 890.488 44.507C889.909 44.507 889.403 44.6413 888.969 44.91C888.556 45.158 888.235 45.5197 888.008 45.995C887.781 46.4497 887.667 47.0077 887.667 47.669V48.723C887.667 49.4463 887.812 50.0663 888.101 50.583C888.39 51.0997 888.804 51.4923 889.341 51.761C889.878 52.009 890.529 52.133 891.294 52.133C892.079 52.133 892.72 52.0297 893.216 51.823C893.733 51.6163 894.27 51.3063 894.828 50.893L898.486 54.582C897.659 55.4707 896.636 56.1527 895.417 56.628C894.218 57.0827 892.772 57.31 891.077 57.31ZM917.896 57.31C916.449 57.31 915.023 57.155 913.618 56.845C912.213 56.535 911.076 56.132 910.208 55.636L912.13 51.017C912.936 51.4923 913.866 51.8643 914.92 52.133C915.995 52.4017 917.038 52.536 918.051 52.536C918.898 52.536 919.467 52.4637 919.756 52.319C920.066 52.1743 920.221 51.978 920.221 51.73C920.221 51.482 920.045 51.3063 919.694 51.203C919.343 51.079 918.878 50.986 918.299 50.924C917.72 50.862 917.08 50.7897 916.377 50.707C915.695 50.6037 915.003 50.459 914.3 50.273C913.597 50.087 912.957 49.808 912.378 49.436C911.799 49.064 911.334 48.568 910.983 47.948C910.632 47.3073 910.456 46.5013 910.456 45.53C910.456 44.4553 910.776 43.484 911.417 42.616C912.078 41.748 913.05 41.0557 914.331 40.539C915.633 40.0017 917.235 39.733 919.136 39.733C920.376 39.733 921.616 39.8467 922.856 40.074C924.096 40.3013 925.16 40.6527 926.049 41.128L924.127 45.747C923.259 45.2717 922.401 44.9513 921.554 44.786C920.727 44.6 919.952 44.507 919.229 44.507C918.34 44.507 917.731 44.5897 917.4 44.755C917.09 44.9203 916.935 45.1063 916.935 45.313C916.935 45.561 917.111 45.747 917.462 45.871C917.813 45.995 918.278 46.088 918.857 46.15C919.436 46.212 920.066 46.2947 920.748 46.398C921.451 46.4807 922.143 46.6253 922.825 46.832C923.528 47.018 924.168 47.297 924.747 47.669C925.326 48.041 925.791 48.5473 926.142 49.188C926.493 49.808 926.669 50.6037 926.669 51.575C926.669 52.5877 926.349 53.5383 925.708 54.427C925.067 55.295 924.096 55.9977 922.794 56.535C921.492 57.0517 919.859 57.31 917.896 57.31ZM932.51 63.324C931.58 63.324 930.63 63.1793 929.658 62.89C928.708 62.6213 927.943 62.2597 927.364 61.805L929.689 57C930.041 57.2687 930.433 57.4857 930.867 57.651C931.322 57.8163 931.756 57.899 932.169 57.899C932.789 57.899 933.265 57.7647 933.595 57.496C933.926 57.248 934.195 56.8657 934.401 56.349L935.114 54.551L935.61 53.869L941.035 40.043H947.669L940.694 57.341C940.074 58.891 939.351 60.1 938.524 60.968C937.718 61.836 936.809 62.4457 935.796 62.797C934.804 63.1483 933.709 63.324 932.51 63.324ZM934.153 57.775L926.775 40.043H933.967L939.051 53.249L934.153 57.775ZM948.74 57V40.043H955.405V45.003L954.072 43.577C954.734 42.2957 955.622 41.3347 956.738 40.694C957.875 40.0533 959.136 39.733 960.52 39.733C961.822 39.733 963 40.0017 964.054 40.539C965.108 41.0557 965.935 41.872 966.534 42.988C967.154 44.104 967.464 45.5507 967.464 47.328V57H960.458V48.537C960.458 47.483 960.272 46.739 959.9 46.305C959.528 45.8503 959.022 45.623 958.381 45.623C957.906 45.623 957.462 45.7367 957.048 45.964C956.656 46.1707 956.335 46.522 956.087 47.018C955.86 47.514 955.746 48.1857 955.746 49.033V57H948.74ZM979.924 57.31C977.981 57.31 976.255 56.938 974.747 56.194C973.238 55.45 972.05 54.4167 971.182 53.094C970.334 51.7507 969.911 50.2213 969.911 48.506C969.911 46.7907 970.334 45.2717 971.182 43.949C972.05 42.6263 973.238 41.593 974.747 40.849C976.255 40.105 977.981 39.733 979.924 39.733C981.99 39.733 983.757 40.1773 985.225 41.066C986.692 41.9547 987.705 43.1843 988.263 44.755L982.838 47.421C982.486 46.6357 982.052 46.0673 981.536 45.716C981.04 45.3647 980.492 45.189 979.893 45.189C979.376 45.189 978.89 45.313 978.436 45.561C978.002 45.809 977.65 46.181 977.382 46.677C977.134 47.1523 977.01 47.762 977.01 48.506C977.01 49.25 977.134 49.87 977.382 50.366C977.65 50.862 978.002 51.234 978.436 51.482C978.89 51.73 979.376 51.854 979.893 51.854C980.492 51.854 981.04 51.6783 981.536 51.327C982.052 50.9757 982.486 50.4073 982.838 49.622L988.263 52.288C987.705 53.8587 986.692 55.0883 985.225 55.977C983.757 56.8657 981.99 57.31 979.924 57.31ZM993.65 57.31C992.492 57.31 991.521 56.938 990.736 56.194C989.95 55.4293 989.558 54.458 989.558 53.28C989.558 52.0813 989.95 51.1203 990.736 50.397C991.521 49.6737 992.492 49.312 993.65 49.312C994.807 49.312 995.778 49.6737 996.564 50.397C997.349 51.1203 997.742 52.0813 997.742 53.28C997.742 54.458 997.349 55.4293 996.564 56.194C995.778 56.938 994.807 57.31 993.65 57.31Z" fill="url(#paint0_linear_6_85)"></path>
<defs>
<linearGradient id="paint0_linear_6_85" x1="11" y1="45.5" x2="1002" y2="45.5" gradientUnits="userSpaceOnUse">
<stop stop-color="#5900FF"></stop>
<stop offset="0.519231" stop-color="#FF00D0"></stop>
<stop offset="1" stop-color="#29AD88"></stop>
</linearGradient>
</defs>
</svg>
